<?xml version="1.0" encoding="UTF-8" standalone="no" ?>
<!DOCTYPE svg PUBLIC "-//W3C//DTD SVG 1.1//EN" "http://www.w3.org/Graphics/SVG/1.1/DTD/svg11.dtd">
<svg xmlns="http://www.w3.org/2000/svg" xmlns:xlink="http://www.w3.org/1999/xlink" version="1.1" width="1000" height="1000" viewBox="0 0 1000 1000" xml:space="preserve">
<desc>Created with Fabric.js 5.2.4</desc>
<defs>
</defs>
<rect x="0" y="0" width="100%" height="100%" fill="transparent"></rect>
<g transform="matrix(0 0 0 0 0 0)" id="cc774340-1cff-4aac-9d32-88dda5595abf"  >
</g>
<g transform="matrix(1 0 0 1 500 500)" id="4769bb72-1b52-4ea0-940e-35b5bae761a2"  >
<rect style="stroke: none; stroke-width: 1; stroke-dasharray: none; stroke-linecap: butt; stroke-dashoffset: 0; stroke-linejoin: miter; stroke-miterlimit: 4; fill: rgb(255,255,255); fill-rule: nonzero; opacity: 1; visibility: hidden;" vector-effect="non-scaling-stroke"  x="-500" y="-500" rx="0" ry="0" width="1000" height="1000" />
</g>
<g transform="matrix(5.54 0 0 5.54 310.97 649.78)"  >
<path style="stroke: none; stroke-width: 1; stroke-dasharray: none; stroke-linecap: butt; stroke-dashoffset: 0; stroke-linejoin: miter; stroke-miterlimit: 4; fill: rgb(202,52,51); fill-rule: nonzero; opacity: 1;" vector-effect="non-scaling-stroke"  transform=" translate(-6.01, -68.6)" d="M 8.352 64.877 L 7.402 64.92699999999999 L 7.402 71.377 L 4.652 71.377 L 4.652 65.05199999999999 L 3.677 65.10199999999999 L 3.677 71.47699999999999 C 3.677 71.93099999999998 4.073 72.32699999999998 4.527 72.32699999999998 L 7.527 72.32699999999998 C 7.981 72.32699999999998 8.352 71.93099999999998 8.352 71.47699999999999 L 8.352 64.877 z" stroke-linecap="round" />
</g>
<g transform="matrix(5.54 0 0 5.54 461.6 510.7)"  >
<path style="stroke: none; stroke-width: 1; stroke-dasharray: none; stroke-linecap: butt; stroke-dashoffset: 0; stroke-linejoin: miter; stroke-miterlimit: 4; fill: rgb(202,52,51); fill-rule: nonzero; opacity: 1;" vector-effect="non-scaling-stroke"  transform=" translate(-33.2, -43.46)" d="M 64.002 21.377 C 56.376 21.476 50.42999999999999 23.747 45.55199999999999 27.177 C 39.96999999999999 31.101 35.75899999999999 36.504 31.751999999999992 41.727000000000004 C 27.74499999999999 46.95 23.962999999999994 52.022000000000006 19.35199999999999 55.377 C 14.740999999999989 58.732 9.33999999999999 60.394000000000005 1.8769999999999882 58.877 L 1.8019999999999883 58.877 L 1.7769999999999884 58.877 C 1.3319999999999883 58.877 0.9269999999999884 59.27 0.9269999999999884 59.727000000000004 L 0.9269999999999884 64.677 C 0.9269999999999884 65.117 1.3179999999999885 65.45 1.7519999999999882 65.477 C 1.7599999999999882 65.47800000000001 1.7439999999999882 65.50200000000001 1.7519999999999882 65.50200000000001 C 1.7629999999999881 65.50300000000001 1.7659999999999882 65.501 1.7769999999999881 65.50200000000001 C 10.533999999999988 65.96000000000001 17.255999999999986 63.51300000000001 22.801999999999985 59.65200000000001 C 28.354999999999986 55.78600000000001 32.72799999999999 50.51400000000001 36.926999999999985 45.40200000000001 C 41.12599999999998 40.290000000000006 45.13899999999998 35.33800000000001 49.87699999999998 31.977000000000007 C 54.20999999999998 28.903000000000006 59.14299999999998 27.17300000000001 65.47699999999998 27.852000000000007 L 65.35199999999998 26.927000000000007 C 58.89699999999998 26.287000000000006 53.775999999999975 28.03900000000001 49.351999999999975 31.177000000000007 C 44.46099999999998 34.64600000000001 40.39699999999998 39.720000000000006 36.20199999999998 44.827000000000005 C 32.00699999999998 49.934000000000005 27.665999999999976 55.108000000000004 22.251999999999978 58.87700000000001 C 16.858999999999977 62.63200000000001 10.399999999999977 65.00800000000001 1.8769999999999776 64.57700000000001 L 1.8769999999999776 59.85200000000001 C 9.463999999999977 61.34300000000001 15.166999999999977 59.57300000000001 19.901999999999976 56.12700000000001 C 24.678999999999977 52.65100000000001 28.49999999999998 47.543000000000006 32.501999999999974 42.32700000000001 C 36.50399999999998 37.11100000000001 40.693999999999974 31.79700000000001 46.126999999999974 27.97700000000001 C 51.08799999999997 24.48900000000001 57.068999999999974 22.223000000000013 65.00199999999998 22.327000000000012 L 65.35199999999998 21.377000000000013 C 64.89499999999998 21.368000000000013 64.44799999999998 21.371000000000013 64.00199999999998 21.377000000000013 z" stroke-linecap="round" />
</g>
<g transform="matrix(5.54 0 0 5.54 663.84 527.87)"  >
<path style="stroke: none; stroke-width: 1; stroke-dasharray: none; stroke-linecap: butt; stroke-dashoffset: 0; stroke-linejoin: miter; stroke-miterlimit: 4; fill: rgb(202,52,51); fill-rule: nonzero; opacity: 1;" vector-effect="non-scaling-stroke"  transform=" translate(-69.76, -46.56)" d="M 65.059 21.074 C 64.608 21.131 64.271 21.566000000000003 64.327 22.017000000000003 L 70.598 71.685 C 70.655 72.136 71.09 72.473 71.541 72.416 L 74.456 72.048 C 74.907 71.991 75.244 71.556 75.187 71.10600000000001 L 68.916 21.437000000000012 C 68.859 20.98600000000001 68.42399999999999 20.64900000000001 67.973 20.70600000000001 L 65.059 21.07400000000001 z M 65.304 22.019000000000002 L 68.001 21.679000000000002 L 74.245 71.13 L 71.548 71.47099999999999 L 65.304 22.01899999999999 z" stroke-linecap="round" />
</g>
<g transform="matrix(5.54 0 0 5.54 653.52 462.13)"  >
<path style="stroke: none; stroke-width: 1; stroke-dasharray: none; stroke-linecap: butt; stroke-dashoffset: 0; stroke-linejoin: miter; stroke-miterlimit: 4; fill: rgb(202,52,51); fill-rule: nonzero; opacity: 1;" vector-effect="non-scaling-stroke"  transform=" translate(-67.89, -34.69)" d="M 65.102 10.677 C 64.85000000000001 10.684 64.604 10.702 64.352 10.727 C 62.338 10.928 60.368 11.717 58.877 13.077 C 57.386 14.437 56.394000000000005 16.39 56.377 18.826999999999998 L 56.377 18.851999999999997 L 56.402 23.875999999999998 L 57.377 23.875999999999998 L 57.302 18.851999999999997 L 57.302 18.826999999999998 C 57.326 16.656 58.193 14.970999999999998 59.502 13.776999999999997 C 60.818000000000005 12.576999999999998 62.594 11.859999999999998 64.427 11.676999999999998 C 66.26 11.493999999999998 68.15400000000001 11.838999999999999 69.62700000000001 12.726999999999999 C 71.10000000000001 13.614999999999998 72.18800000000002 15.009999999999998 72.52700000000002 17.026999999999997 L 72.50200000000001 17.026999999999997 L 78.302 56.67699999999999 L 73.12700000000001 57.751999999999995 L 73.27700000000002 58.702 L 78.92700000000002 57.527 L 79.40200000000002 57.427 L 79.30200000000002 57.002 L 73.42700000000002 16.877000000000002 C 73.04400000000003 14.599000000000002 71.78100000000002 12.914000000000001 70.10200000000002 11.902000000000003 C 68.63200000000002 11.016000000000004 66.86800000000002 10.628000000000004 65.10200000000002 10.677000000000003 z" stroke-linecap="round" />
</g>
<g transform="matrix(5.54 0 0 5.54 593.87 409.45)"  >
<path style="stroke: none; stroke-width: 1; stroke-dasharray: none; stroke-linecap: butt; stroke-dashoffset: 0; stroke-linejoin: miter; stroke-miterlimit: 4; fill: rgb(202,52,51); fill-rule: nonzero; opacity: 1;" vector-effect="non-scaling-stroke"  transform=" translate(-57.12, -25.19)" d="M 57.12 23.233 C 56.046 23.233 55.166 24.113 55.166 25.187 C 55.166 26.261000000000003 56.046 27.141000000000002 57.12 27.141000000000002 C 58.193999999999996 27.141000000000002 59.074 26.261000000000003 59.074 25.187 C 59.074 24.113 58.193999999999996 23.233 57.12 23.233 z M 57.12 24.181 C 57.681999999999995 24.181 58.126999999999995 24.626 58.126 25.187 C 58.126 25.749000000000002 57.681 26.194000000000003 57.12 26.194000000000003 C 56.558 26.194000000000003 56.113 25.749000000000002 56.113 25.187 C 56.113 24.625 56.558 24.18 57.12 24.181 z" stroke-linecap="round" />
</g>
<g transform="matrix(5.54 0 0 5.54 671.21 594.96)"  >
<path style="stroke: none; stroke-width: 1; stroke-dasharray: none; stroke-linecap: butt; stroke-dashoffset: 0; stroke-linejoin: miter; stroke-miterlimit: 4; fill: rgb(202,52,51); fill-rule: nonzero; opacity: 1;" vector-effect="non-scaling-stroke"  transform=" translate(-71.09, -58.7)" d="M 71.094 57.338 C 70.34599999999999 57.338 69.732 57.952 69.732 58.7 C 69.732 59.448 70.346 60.062000000000005 71.094 60.062000000000005 C 71.842 60.062000000000005 72.45599999999999 59.44800000000001 72.455 58.7 C 72.455 57.952000000000005 71.841 57.338 71.094 57.338 z M 71.094 57.999 C 71.485 57.999 71.79599999999999 58.309000000000005 71.79499999999999 58.7 C 71.79499999999999 59.091 71.48499999999999 59.402 71.094 59.402 C 70.70299999999999 59.402 70.392 59.092 70.392 58.7 C 70.392 58.309000000000005 70.702 57.998000000000005 71.094 57.999 z" stroke-linecap="round" />
</g>
<g transform="matrix(5.54 0 0 5.54 665.98 551.69)"  >
<path style="stroke: none; stroke-width: 1; stroke-dasharray: none; stroke-linecap: butt; stroke-dashoffset: 0; stroke-linejoin: miter; stroke-miterlimit: 4; fill: rgb(202,52,51); fill-rule: nonzero; opacity: 1;" vector-effect="non-scaling-stroke"  transform=" translate(-70.15, -50.88)" d="M 70.146 49.522 C 69.398 49.522 68.784 50.135999999999996 68.784 50.884 C 68.784 51.632 69.39800000000001 52.246 70.146 52.246 C 70.894 52.246 71.508 51.632000000000005 71.508 50.884 C 71.508 50.136 70.89399999999999 49.522 70.146 49.522 z M 70.146 50.183 C 70.537 50.183 70.848 50.493 70.848 50.884 C 70.848 51.275 70.538 51.586 70.146 51.586 C 69.755 51.586 69.444 51.275999999999996 69.44500000000001 50.884 C 69.44500000000001 50.493 69.75500000000001 50.182 70.146 50.183 z" stroke-linecap="round" />
</g>
<g transform="matrix(5.54 0 0 5.54 660.07 508.42)"  >
<path style="stroke: none; stroke-width: 1; stroke-dasharray: none; stroke-linecap: butt; stroke-dashoffset: 0; stroke-linejoin: miter; stroke-miterlimit: 4; fill: rgb(202,52,51); fill-rule: nonzero; opacity: 1;" vector-effect="non-scaling-stroke"  transform=" translate(-69.08, -43.07)" d="M 69.08 41.707 C 68.332 41.707 67.718 42.321 67.718 43.068 C 67.718 43.815999999999995 68.33200000000001 44.43 69.08 44.43 C 69.828 44.43 70.442 43.816 70.442 43.068 C 70.442 42.32 69.82799999999999 41.705999999999996 69.08 41.707 z M 69.08 42.367 C 69.471 42.367 69.782 42.677 69.782 43.068 C 69.782 43.458999999999996 69.472 43.769999999999996 69.08 43.769999999999996 C 68.689 43.769999999999996 68.378 43.459999999999994 68.379 43.068 C 68.379 42.677 68.68900000000001 42.366 69.08 42.367 z" stroke-linecap="round" />
</g>
<g transform="matrix(5.54 0 0 5.54 654.17 462.54)"  >
<path style="stroke: none; stroke-width: 1; stroke-dasharray: none; stroke-linecap: butt; stroke-dashoffset: 0; stroke-linejoin: miter; stroke-miterlimit: 4; fill: rgb(202,52,51); fill-rule: nonzero; opacity: 1;" vector-effect="non-scaling-stroke"  transform=" translate(-68.01, -34.78)" d="M 68.015 33.417 C 67.267 33.417 66.653 34.031 66.653 34.779 C 66.653 35.527 67.26700000000001 36.141000000000005 68.015 36.141000000000005 C 68.763 36.141000000000005 69.377 35.52700000000001 69.376 34.779 C 69.376 34.031000000000006 68.762 33.417 68.015 33.417 z M 68.015 34.077 C 68.406 34.077 68.717 34.387 68.716 34.778999999999996 C 68.716 35.169999999999995 68.40599999999999 35.480999999999995 68.015 35.48 C 67.624 35.48 67.313 35.169999999999995 67.313 34.778999999999996 C 67.313 34.388 67.623 34.077 68.015 34.077 z" stroke-linecap="round" />
</g>
<g transform="matrix(5.54 0 0 5.54 648.93 419.28)"  >
<path style="stroke: none; stroke-width: 1; stroke-dasharray: none; stroke-linecap: butt; stroke-dashoffset: 0; stroke-linejoin: miter; stroke-miterlimit: 4; fill: rgb(202,52,51); fill-rule: nonzero; opacity: 1;" vector-effect="non-scaling-stroke"  transform=" translate(-67.07, -26.96)" d="M 67.067 25.601 C 66.31899999999999 25.601 65.705 26.215 65.705 26.963 C 65.705 27.711000000000002 66.319 28.325000000000003 67.067 28.325000000000003 C 67.815 28.325000000000003 68.42899999999999 27.711000000000002 68.42899999999999 26.963 C 68.42899999999999 26.215 67.81499999999998 25.601 67.067 25.601 z M 67.067 26.261 C 67.458 26.261 67.76899999999999 26.570999999999998 67.76899999999999 26.963 C 67.76899999999999 27.354 67.45899999999999 27.665 67.067 27.664 C 66.67599999999999 27.664 66.365 27.354000000000003 66.366 26.963 C 66.366 26.572000000000003 66.676 26.261000000000003 67.067 26.261000000000003 z" stroke-linecap="round" />
</g>
<g transform="matrix(3.77 0 0 3.77 156.08 364.83)"  >
<path style="stroke: none; stroke-width: 1; stroke-dasharray: none; stroke-linecap: butt; stroke-dashoffset: 0; stroke-linejoin: miter; stroke-miterlimit: 4; fill: rgb(202,52,51); fill-rule: nonzero; opacity: 1;" vector-effect="non-scaling-stroke"  transform=" translate(-30.99, -86.36)" d="M 19.299 68.471 L 19.299 68.471 L 27.025 72.247 L 26.997999999999998 72.463 C 24.455999999999996 72.96799999999999 22.227999999999998 74.702 20.314999999999998 77.66399999999999 L 20.314999999999998 77.66399999999999 C 19.701999999999998 78.58599999999998 19.205 79.51099999999998 18.822999999999997 80.43799999999999 C 18.440999999999995 81.36599999999999 18.196999999999996 82.192 18.090999999999998 82.91799999999999 C 17.980999999999998 83.63499999999999 17.981999999999996 84.291 18.095 84.886 L 18.095 84.886 C 18.331999999999997 86.14399999999999 18.974 86.988 20.019 87.419 L 20.019 87.419 C 21.386999999999997 87.982 22.590999999999998 87.969 23.628999999999998 87.38 L 23.628999999999998 87.38 C 24.898999999999997 86.646 26.215999999999998 85.098 27.58 82.734 C 28.944 80.36999999999999 30.223999999999997 78.553 31.421 77.28 C 32.62 76.002 33.859 75.06 35.138999999999996 74.45400000000001 L 35.138999999999996 74.45400000000001 C 37.550999999999995 73.298 40.266 73.34 43.28399999999999 74.58200000000001 L 43.28399999999999 74.58200000000001 C 47.24699999999999 76.21300000000001 49.68299999999999 78.96300000000001 50.58999999999999 82.831 L 50.58999999999999 82.831 C 51.37699999999999 86.142 50.96999999999999 89.74000000000001 49.36999999999999 93.628 L 49.36999999999999 93.628 C 48.081999999999994 96.758 46.212999999999994 99.607 43.76199999999999 102.175 L 43.76199999999999 102.175 C 42.95499999999999 103.017 42.13499999999999 103.709 41.300999999999995 104.252 L 41.300999999999995 104.252 L 32.413999999999994 100.244 L 32.37799999999999 100.106 C 37.141999999999996 99.458 40.571999999999996 96.588 42.666999999999994 91.497 L 42.666999999999994 91.497 C 44.15599999999999 87.88 44.267999999999994 85.129 43.004999999999995 83.243 L 43.004999999999995 83.243 C 42.574 82.606 41.99399999999999 82.137 41.266 81.83699999999999 C 40.538 81.53699999999999 39.888999999999996 81.40399999999998 39.32 81.43699999999998 C 38.742 81.47399999999999 38.171 81.69199999999998 37.608 82.09199999999998 L 37.608 82.09199999999998 C 36.497 82.85699999999999 35.315999999999995 84.42399999999998 34.067 86.79399999999998 C 32.82 89.15799999999999 31.55 90.98999999999998 30.259 92.29199999999999 C 28.97 93.588 27.654 94.50899999999999 26.310000000000002 95.05499999999999 L 26.310000000000002 95.05499999999999 C 23.888 96.03599999999999 21.130000000000003 95.889 18.035000000000004 94.615 L 18.035000000000004 94.615 C 14.835000000000004 93.298 12.708000000000004 91.10799999999999 11.656000000000004 88.04499999999999 L 11.656000000000004 88.04499999999999 C 10.582000000000004 84.93199999999999 10.844000000000005 81.43499999999999 12.440000000000005 77.55399999999999 C 14.035000000000005 73.67899999999999 16.321000000000005 70.65099999999998 19.299000000000007 68.47099999999999 z" stroke-linecap="round" />
</g>
<g transform="matrix(3.77 0 0 3.77 287.68 189.28)"  >
<path style="stroke: none; stroke-width: 1; stroke-dasharray: none; stroke-linecap: butt; stroke-dashoffset: 0; stroke-linejoin: miter; stroke-miterlimit: 4; fill: rgb(202,52,51); fill-rule: nonzero; opacity: 1;" vector-effect="non-scaling-stroke"  transform=" translate(-65.9, -39.8)" d="M 56.336 19.914 L 79.458 52.812000000000005 C 80.41799999999999 54.178000000000004 81.076 55.047000000000004 81.429 55.419000000000004 L 81.429 55.419000000000004 L 75.367 59.68000000000001 L 50.367000000000004 24.10900000000001 z" stroke-linecap="round" />
</g>
<g transform="matrix(3.77 0 0 3.77 459.32 125.61)"  >
<path style="stroke: none; stroke-width: 1; stroke-dasharray: none; stroke-linecap: butt; stroke-dashoffset: 0; stroke-linejoin: miter; stroke-miterlimit: 4; fill: rgb(202,52,51); fill-rule: nonzero; opacity: 1;" vector-effect="non-scaling-stroke"  transform=" translate(-111.43, -22.91)" d="M 112.255 10.86 L 105.151 6.969999999999999 C 106.396 4.364999999999998 107.746 2.041999999999999 109.201 -8.881784197001252e-16 L 109.201 -8.881784197001252e-16 L 116.03699999999999 4.123999999999999 C 115.332 5.253999999999999 114.68499999999999 6.354999999999999 114.095 7.425999999999998 L 114.095 7.425999999999998 C 114.095 7.425999999999998 113.482 8.569999999999999 112.255 10.86 z M 113.839 14.656 L 117.187 41.679 C 117.392 43.336 117.564 44.412 117.702 44.907000000000004 L 117.702 44.907000000000004 L 110.348 45.818000000000005 L 106.598 15.553000000000004 z" stroke-linecap="round" />
</g>
<g transform="matrix(3.77 0 0 3.77 680.03 186.35)"  >
<path style="stroke: none; stroke-width: 1; stroke-dasharray: none; stroke-linecap: butt; stroke-dashoffset: 0; stroke-linejoin: miter; stroke-miterlimit: 4; fill: rgb(202,52,51); fill-rule: nonzero; opacity: 1;" vector-effect="non-scaling-stroke"  transform=" translate(-169.97, -39.02)" d="M 166.643 56.753 L 166.643 56.753 C 163.817 56.933 161.291 56.489 159.064 55.421 C 156.837 54.353 155.059 53.067 153.731 51.564 C 152.4 50.067 151.44 48.42 150.85 46.623 L 150.85 46.623 C 149.64499999999998 42.94 150.009 39.083 151.942 35.052 L 151.942 35.052 C 153.946 30.872999999999998 157.01500000000001 28.07 161.149 26.645 L 161.149 26.645 C 165.317 25.192999999999998 169.602 25.523 174.005 27.634 L 174.005 27.634 C 175.356 28.282 176.59799999999998 29.092 177.73 30.065 L 177.73 30.065 L 183.343 18.36 L 189.784 21.448999999999998 L 176.297 49.57299999999999 C 175.177 51.90899999999999 174.557 53.48799999999999 174.436 54.31099999999999 C 174.30800000000002 55.13699999999999 174.298 55.779999999999994 174.40900000000002 56.24099999999999 C 174.52500000000003 56.70499999999999 174.72000000000003 57.18599999999999 174.99500000000003 57.68399999999999 L 174.99500000000003 57.68399999999999 L 167.95200000000003 59.68299999999999 C 167.27800000000002 58.75399999999999 166.84100000000004 57.776999999999994 166.64300000000003 56.75299999999999 z M 163.204 49.96 L 163.204 49.96 C 164.675 50.666000000000004 166.161 51.033 167.661 51.062 L 167.661 51.062 L 174.65 36.489 C 173.663 35.388999999999996 172.452 34.495 171.014 33.805 C 169.577 33.116 168.25300000000001 32.72 167.041 32.618 C 165.827 32.507000000000005 164.69 32.617000000000004 163.63 32.947 L 163.63 32.947 C 161.392 33.648 159.72299999999998 35.147000000000006 158.62199999999999 37.443000000000005 L 158.62199999999999 37.443000000000005 C 157.41899999999998 39.95100000000001 157.16099999999997 42.288000000000004 157.84799999999998 44.455000000000005 L 157.84799999999998 44.455000000000005 C 158.59599999999998 46.77100000000001 160.38199999999998 48.60600000000001 163.20399999999998 49.96000000000001 z" stroke-linecap="round" />
</g>
<g transform="matrix(3.77 0 0 3.77 831.37 371.48)"  >
<path style="stroke: none; stroke-width: 1; stroke-dasharray: none; stroke-linecap: butt; stroke-dashoffset: 0; stroke-linejoin: miter; stroke-miterlimit: 4; fill: rgb(202,52,51); fill-rule: nonzero; opacity: 1;" vector-effect="non-scaling-stroke"  transform=" translate(-210.11, -88.13)" d="M 202.808 73.931 L 202.808 73.931 C 204.855 72.942 206.92499999999998 72.374 209.01999999999998 72.229 C 211.106 72.081 213.117 72.329 215.04999999999998 72.974 L 215.04999999999998 72.974 C 219.15499999999997 74.361 222.27399999999997 77.26100000000001 224.408 81.674 L 224.408 81.674 C 226.20999999999998 85.40100000000001 226.42299999999997 88.994 225.04799999999997 92.45100000000001 L 225.04799999999997 92.45100000000001 C 223.73899999999998 95.82700000000001 221.28099999999998 98.387 217.67399999999998 100.131 L 217.67399999999998 100.131 C 216.29099999999997 100.8 215.29299999999998 101.151 214.682 101.186 L 214.682 101.186 C 213.345 99.674 211.37599999999998 96.22900000000001 208.77599999999998 90.85000000000001 L 208.77599999999998 90.85000000000001 L 204.307 81.60600000000001 C 202.65599999999998 82.96100000000001 201.70999999999998 84.724 201.468 86.89300000000001 C 201.232 89.05900000000001 201.75799999999998 91.47500000000001 203.045 94.13800000000002 L 203.045 94.13800000000002 C 204.391 96.92200000000003 206.048 99.07200000000002 208.015 100.59000000000002 L 208.015 100.59000000000002 C 208.529 100.98300000000002 208.962 101.25700000000002 209.31199999999998 101.41200000000002 L 209.31199999999998 101.41200000000002 C 208.564 101.73100000000002 207.791 102.05200000000002 206.99499999999998 102.37400000000002 L 206.99499999999998 102.37400000000002 L 202.75499999999997 104.06400000000002 C 201.20499999999996 103.17700000000002 199.53299999999996 101.33000000000003 197.73899999999998 98.52300000000002 L 197.73899999999998 98.52300000000002 C 197.21299999999997 97.69800000000002 196.75599999999997 96.88300000000002 196.36599999999999 96.07700000000003 L 196.36599999999999 96.07700000000003 C 194.213 91.62400000000002 193.73 87.31900000000003 194.915 83.16300000000003 L 194.915 83.16300000000003 C 196.113 78.97300000000003 198.743 75.89600000000003 202.808 73.93100000000003 z M 215.822 92.405 L 215.822 92.405 C 219.235 89.866 220.125 86.908 218.492 83.529 L 218.492 83.529 C 217.20399999999998 80.865 215.07999999999998 79.396 212.119 79.11999999999999 L 212.119 79.11999999999999 C 211.22 79.03999999999999 210.295 79.08899999999998 209.344 79.267 L 209.344 79.267 C 209.523 79.695 209.753 80.222 210.034 80.848 L 210.034 80.848 L 210.971 82.785 C 211.269 83.445 211.562 84.072 211.849 84.667 L 211.849 84.667 L 212.57 86.159 C 213.004 87.05600000000001 213.43699999999998 87.93 213.868 88.77900000000001 L 213.868 88.77900000000001 L 214.994 90.89000000000001 C 215.29 91.45900000000002 215.566 91.96400000000001 215.822 92.40500000000002 z" stroke-linecap="round" />
</g>
<g transform="matrix(3.77 0 0 3.77 191.8 682.68)"  >
<path style="stroke: none; stroke-width: 1; stroke-dasharray: none; stroke-linecap: butt; stroke-dashoffset: 0; stroke-linejoin: miter; stroke-miterlimit: 4; fill: rgb(202,52,51); fill-rule: nonzero; opacity: 1;" vector-effect="non-scaling-stroke"  transform=" translate(-40.47, -170.67)" d="M 64.363 174.082 L 64.363 174.082 L 54.973 177.50199999999998 L 54.82 177.319 C 56.442 174.77499999999998 56.785000000000004 171.51 55.852000000000004 167.523 L 55.852000000000004 167.523 C 55.568000000000005 166.261 55.19200000000001 165.09799999999998 54.724000000000004 164.034 C 54.254000000000005 162.964 53.760000000000005 162.093 53.242000000000004 161.41899999999998 C 52.724000000000004 160.74499999999998 52.169000000000004 160.21599999999998 51.57600000000001 159.831 L 51.57600000000001 159.831 C 50.33100000000001 159.01899999999998 49.107000000000006 158.87699999999998 47.90400000000001 159.40599999999998 L 47.90400000000001 159.40599999999998 C 46.33500000000001 160.09599999999998 45.37300000000001 161.111 45.02000000000001 162.45299999999997 L 45.02000000000001 162.45299999999997 C 44.613000000000014 164.11599999999999 44.85100000000001 166.46999999999997 45.73100000000001 169.51599999999996 C 46.61500000000001 172.56799999999996 47.107000000000006 175.10799999999998 47.20900000000001 177.13799999999998 C 47.31000000000001 179.16699999999997 47.10200000000001 180.96499999999997 46.58300000000001 182.53099999999998 L 46.58300000000001 182.53099999999998 C 45.60400000000001 185.47899999999998 43.37300000000001 187.718 39.89200000000001 189.24899999999997 L 39.89200000000001 189.24899999999997 C 35.33500000000001 191.25199999999995 31.06900000000001 191.07799999999997 27.09400000000001 188.72499999999997 L 27.09400000000001 188.72499999999997 C 23.69100000000001 186.71099999999996 21.006000000000007 183.46599999999995 19.03900000000001 178.99099999999996 L 19.03900000000001 178.99099999999996 C 17.45500000000001 175.38699999999994 16.57200000000001 171.52399999999994 16.38900000000001 167.40099999999995 L 16.38900000000001 167.40099999999995 C 16.33400000000001 166.04499999999996 16.41700000000001 164.79799999999994 16.63900000000001 163.65999999999994 L 16.63900000000001 163.65999999999994 L 27.16400000000001 159.43999999999994 L 27.317000000000007 159.52799999999993 C 24.009000000000007 164.04099999999994 23.643000000000008 169.22999999999993 26.22200000000001 175.09499999999994 L 26.22200000000001 175.09499999999994 C 28.05100000000001 179.25699999999995 30.268000000000008 181.56999999999994 32.87100000000001 182.03499999999994 L 32.87100000000001 182.03499999999994 C 33.75000000000001 182.18899999999994 34.61100000000001 182.08099999999993 35.45500000000001 181.71099999999993 C 36.292000000000016 181.34299999999993 36.92500000000001 180.90499999999992 37.35400000000001 180.39799999999994 C 37.786000000000016 179.88199999999995 38.06000000000002 179.22799999999995 38.176000000000016 178.43399999999994 L 38.176000000000016 178.43399999999994 C 38.44000000000002 176.88899999999995 38.08300000000001 174.63999999999993 37.103000000000016 171.68599999999995 C 36.12700000000002 168.72299999999996 35.615000000000016 166.17799999999994 35.567000000000014 164.04799999999994 C 35.51900000000001 161.91899999999995 35.808000000000014 160.07499999999993 36.43400000000001 158.51799999999994 L 36.43400000000001 158.51799999999994 C 37.56600000000001 155.69699999999995 39.91400000000001 153.50299999999996 43.47700000000001 151.93699999999995 L 43.47700000000001 151.93699999999995 C 47.16200000000001 150.31699999999995 50.71400000000001 150.30299999999997 54.13200000000001 151.89399999999995 L 54.13200000000001 151.89399999999995 C 57.60600000000001 153.50199999999995 60.32400000000001 156.53799999999995 62.286000000000016 161.00199999999995 C 64.24800000000002 165.46599999999995 64.94000000000001 169.82599999999996 64.36300000000001 174.08199999999997 z" stroke-linecap="round" />
</g>
<g transform="matrix(3.77 0 0 3.77 322.2 816.63)"  >
<path style="stroke: none; stroke-width: 1; stroke-dasharray: none; stroke-linecap: butt; stroke-dashoffset: 0; stroke-linejoin: miter; stroke-miterlimit: 4; fill: rgb(202,52,51); fill-rule: nonzero; opacity: 1;" vector-effect="non-scaling-stroke"  transform=" translate(-75.06, -206.2)" d="M 92.911 187.767 L 66.33500000000001 226.24599999999998 C 65.23100000000001 227.84499999999997 64.55000000000001 228.914 64.293 229.45399999999998 L 64.293 229.45399999999998 L 57.20100000000001 224.55499999999998 L 85.936 182.95 z" stroke-linecap="round" />
</g>
<g transform="matrix(3.77 0 0 3.77 466.42 860.89)"  >
<path style="stroke: none; stroke-width: 1; stroke-dasharray: none; stroke-linecap: butt; stroke-dashoffset: 0; stroke-linejoin: miter; stroke-miterlimit: 4; fill: rgb(202,52,51); fill-rule: nonzero; opacity: 1;" vector-effect="non-scaling-stroke"  transform=" translate(-113.31, -217.94)" d="M 116.585 204.562 L 109.80999999999999 198.031 C 112.00599999999999 195.487 114.231 193.293 116.48599999999999 191.451 L 116.48599999999999 191.451 L 122.88699999999999 198.16899999999998 C 121.75399999999999 199.218 120.69099999999999 200.25099999999998 119.69699999999999 201.26799999999997 L 119.69699999999999 201.26799999999997 C 119.69699999999999 201.26799999999997 118.65999999999998 202.36599999999999 116.585 204.56199999999998 z M 117.198 209.308 L 112.672 240.65099999999998 C 112.39399999999999 242.57399999999998 112.25699999999999 243.83399999999997 112.261 244.43099999999998 L 112.261 244.43099999999998 L 103.72999999999999 243.19899999999998 L 108.79899999999999 208.09499999999997 z" stroke-linecap="round" />
</g>
<g transform="matrix(3.77 0 0 3.77 660.83 821.68)"  >
<path style="stroke: none; stroke-width: 1; stroke-dasharray: none; stroke-linecap: butt; stroke-dashoffset: 0; stroke-linejoin: miter; stroke-miterlimit: 4; fill: rgb(202,52,51); fill-rule: nonzero; opacity: 1;" vector-effect="non-scaling-stroke"  transform=" translate(-164.88, -207.54)" d="M 177.298 227.419 L 177.298 227.419 C 175.306 230.043 172.994 231.929 170.365 233.079 C 167.729 234.231 165.24800000000002 234.823 162.92000000000002 234.856 C 160.584 234.886 158.40400000000002 234.48 156.38000000000002 233.63899999999998 L 156.38000000000002 233.63899999999998 C 152.21900000000002 231.902 149.09600000000003 228.64899999999997 147.01200000000003 223.87699999999998 L 147.01200000000003 223.87699999999998 C 144.85600000000002 218.94299999999998 144.72100000000003 214.11399999999998 146.60600000000002 209.38899999999998 L 146.60600000000002 209.38899999999998 C 148.491 204.61599999999999 152.03700000000003 201.09199999999998 157.24400000000003 198.81699999999998 L 157.24400000000003 198.81699999999998 C 158.83800000000002 198.11999999999998 160.49400000000003 197.64299999999997 162.21000000000004 197.385 L 162.21000000000004 197.385 L 156.16600000000003 183.552 L 163.78500000000003 180.22299999999998 L 178.31000000000003 213.46499999999997 C 179.51500000000004 216.22299999999998 180.43100000000004 217.97099999999998 181.05800000000002 218.70899999999997 C 181.69100000000003 219.444 182.25400000000002 219.93999999999997 182.747 220.19499999999996 C 183.23700000000002 220.44499999999996 183.81 220.63799999999998 184.466 220.77399999999997 L 184.466 220.77399999999997 L 180.872 228.48699999999997 C 179.544 228.38099999999997 178.353 228.02499999999998 177.298 227.41899999999995 z M 168.699 225.294 L 168.699 225.294 C 170.43900000000002 224.53400000000002 171.89100000000002 223.50400000000002 173.055 222.205 L 173.055 222.205 L 165.52800000000002 204.978 C 163.812 205.014 162.104 205.404 160.40500000000003 206.145 C 158.70600000000002 206.887 157.35100000000003 207.75 156.33800000000002 208.733 C 155.32000000000002 209.71800000000002 154.55200000000002 210.806 154.03300000000002 211.996 L 154.03300000000002 211.996 C 152.954 214.491 153.008 217.097 154.19500000000002 219.81400000000002 L 154.19500000000002 219.81400000000002 C 155.49200000000002 222.78100000000003 157.354 224.78400000000002 159.78300000000002 225.82200000000003 L 159.78300000000002 225.82200000000003 C 162.38700000000003 226.92900000000003 165.359 226.75300000000004 168.699 225.29400000000004 z" stroke-linecap="round" />
</g>
<g transform="matrix(3.77 0 0 3.77 828.08 684.8)"  >
<path style="stroke: none; stroke-width: 1; stroke-dasharray: none; stroke-linecap: butt; stroke-dashoffset: 0; stroke-linejoin: miter; stroke-miterlimit: 4; fill: rgb(202,52,51); fill-rule: nonzero; opacity: 1;" vector-effect="non-scaling-stroke"  transform=" translate(-209.24, -171.23)" d="M 200.205 187.252 L 200.205 187.252 C 197.86700000000002 186.023 195.90400000000002 184.483 194.317 182.631 C 192.738 180.776 191.583 178.723 190.85 176.473 L 190.85 176.473 C 189.305 171.673 189.85899999999998 166.75 192.511 161.702 L 192.511 161.702 C 194.753 157.436 197.965 154.756 202.148 153.662 L 202.148 153.662 C 206.206 152.54500000000002 210.298 153.071 214.424 155.238 L 214.424 155.238 C 216.00900000000001 156.071 217.02800000000002 156.76 217.479 157.306 L 217.479 157.306 C 216.99 159.602 215.12900000000002 163.82500000000002 211.899 169.97500000000002 L 211.899 169.97500000000002 L 206.343 180.54700000000003 C 208.756 181.15500000000003 211.059 180.82000000000002 213.25199999999998 179.54000000000002 C 215.44199999999998 178.26600000000002 217.337 176.10600000000002 218.938 173.06000000000003 L 218.938 173.06000000000003 C 220.60999999999999 169.87900000000002 221.476 166.84400000000002 221.53699999999998 163.95700000000002 L 221.53699999999998 163.95700000000002 C 221.55199999999996 163.205 221.50699999999998 162.60700000000003 221.403 162.16600000000003 L 221.403 162.16600000000003 C 222.225 162.64800000000002 223.06199999999998 163.15200000000002 223.91199999999998 163.67700000000002 L 223.91199999999998 163.67700000000002 L 228.42699999999996 166.46900000000002 C 228.66599999999997 168.53900000000002 228.09099999999995 171.38100000000003 226.69999999999996 174.99800000000002 L 226.69999999999996 174.99800000000002 C 226.29199999999997 176.061 225.84599999999995 177.05300000000003 225.36199999999997 177.97400000000002 L 225.36199999999997 177.97400000000002 C 222.68899999999996 183.061 218.99899999999997 186.48700000000002 214.29099999999997 188.252 L 214.29099999999997 188.252 C 209.54899999999998 190.02800000000002 204.85399999999996 189.69500000000002 200.20499999999996 187.252 z M 208.487 162.318 L 208.487 162.318 C 203.745 160.87300000000002 200.358 162.084 198.326 165.952 L 198.326 165.952 C 196.72799999999998 168.993 196.825 171.995 198.617 174.96 L 198.617 174.96 C 199.17 175.86 199.857 176.69500000000002 200.67999999999998 177.464 L 200.67999999999998 177.464 C 200.95099999999996 176.989 201.28099999999998 176.41 201.66899999999998 175.724 L 201.66899999999998 175.724 L 202.83899999999997 173.498 C 203.24599999999998 172.765 203.62799999999996 172.058 203.98499999999996 171.378 L 203.98499999999996 171.378 L 204.88399999999996 169.66699999999997 C 205.42199999999997 168.64399999999998 205.93999999999997 167.63599999999997 206.43999999999997 166.64399999999998 L 206.43999999999997 166.64399999999998 L 207.64099999999996 164.13299999999998 C 207.96999999999997 163.46699999999998 208.25199999999995 162.862 208.48699999999997 162.31799999999998 z" stroke-linecap="round" />
</g>
<g transform="matrix(3.77 0 0 3.77 135.02 523.19)"  >
<path style="stroke: none; stroke-width: 1; stroke-dasharray: none; stroke-linecap: butt; stroke-dashoffset: 0; stroke-linejoin: miter; stroke-miterlimit: 4; fill: rgb(202,52,51); fill-rule: nonzero; opacity: 1;" vector-effect="non-scaling-stroke"  transform=" translate(-25.4, -128.37)" d="M 7.98 128.365 C 7.98 118.742 15.781 110.941 25.403 110.94200000000001 C 35.025999999999996 110.94200000000001 42.827 118.74300000000001 42.827 128.365 C 42.827 137.988 35.025999999999996 145.78900000000002 25.403 145.78900000000002 C 15.78 145.78900000000002 7.978999999999999 137.98800000000003 7.98 128.365 z" stroke-linecap="round" />
</g>
<g transform="matrix(3.77 0 0 3.77 864.99 523.19)"  >
<path style="stroke: none; stroke-width: 1; stroke-dasharray: none; stroke-linecap: butt; stroke-dashoffset: 0; stroke-linejoin: miter; stroke-miterlimit: 4; fill: rgb(202,52,51); fill-rule: nonzero; opacity: 1;" vector-effect="non-scaling-stroke"  transform=" translate(-219.03, -128.37)" d="M 201.605 128.365 C 201.605 118.742 209.40599999999998 110.941 219.028 110.94200000000001 C 228.65099999999998 110.94200000000001 236.452 118.74300000000001 236.452 128.365 C 236.452 137.988 228.651 145.78900000000002 219.028 145.78900000000002 C 209.405 145.78900000000002 201.60399999999998 137.98800000000003 201.605 128.365 z" stroke-linecap="round" />
</g>
</svg>