<?xml version="1.0" encoding="UTF-8" standalone="no" ?>
<!DOCTYPE svg PUBLIC "-//W3C//DTD SVG 1.1//EN" "http://www.w3.org/Graphics/SVG/1.1/DTD/svg11.dtd">
<svg xmlns="http://www.w3.org/2000/svg" xmlns:xlink="http://www.w3.org/1999/xlink" version="1.1" width="2160" height="1080" viewBox="0 0 2160 1080" xml:space="preserve">
<desc>Created with Fabric.js 5.2.4</desc>
<defs>
</defs>
<g transform="matrix(1 0 0 1 1080 540)" id="c7afaa88-5117-4a55-900e-3eb4ca9db5f6"  >
<rect style="stroke: none; stroke-width: 1; stroke-dasharray: none; stroke-linecap: butt; stroke-dashoffset: 0; stroke-linejoin: miter; stroke-miterlimit: 4; fill: rgb(255,255,255); fill-rule: nonzero; opacity: 1; visibility: hidden;" vector-effect="non-scaling-stroke"  x="-1080" y="-540" rx="0" ry="0" width="2160" height="1080" />
</g>
<g transform="matrix(Infinity NaN NaN Infinity 0 0)" id="1c769145-c7b8-40a5-a5e6-0f987f047503"  >
</g>
<g transform="matrix(19.08 0 0 19.08 1080 540)"  >
<path style="stroke: none; stroke-width: 1; stroke-dasharray: none; stroke-linecap: butt; stroke-dashoffset: 0; stroke-linejoin: miter; stroke-miterlimit: 4; fill: rgb(237,38,71); fill-rule: nonzero; opacity: 1;" vector-effect="non-scaling-stroke"  transform=" translate(-57.02, 18.77)" d="M 23.8 -30.66 L 23.8 -30.66 L 23.34 -23.49 L 23.17 -23.44 Q 21.36 -26.15 17.02 -26.95 L 17.02 -26.95 Q 15.65 -27.22 14.39 -27.22 Q 13.13 -27.22 12.24 -27 Q 11.35 -26.78 10.72 -26.37 L 10.72 -26.37 Q 9.38 -25.49 9.38 -24.07 L 9.38 -24.07 Q 9.38 -22.22 10.55 -21.29 L 10.55 -21.29 Q 12.01 -20.17 15.41 -19.71 Q 18.8 -19.26 20.85 -18.48 Q 22.9 -17.7 24.22 -16.5 L 24.22 -16.5 Q 26.71 -14.26 26.71 -10.16 L 26.71 -10.16 Q 26.71 -4.79 22.66 -1.88 L 22.66 -1.88 Q 19.19 0.61 13.92 0.61 L 13.92 0.61 Q 9.67 0.61 5.52 -1 L 5.52 -1 Q 4.15 -1.54 3.13 -2.25 L 3.13 -2.25 L 3.39 -10.4 L 3.49 -10.47 Q 6.52 -5.25 13.43 -5.25 L 13.43 -5.25 Q 18.33 -5.25 19.92 -7.62 L 19.92 -7.62 Q 20.46 -8.42 20.46 -9.41 Q 20.46 -10.4 20.14 -11.05 Q 19.82 -11.69 19.09 -12.16 L 19.09 -12.16 Q 17.68 -13.09 14.33 -13.4 Q 10.99 -13.72 8.86 -14.6 Q 6.74 -15.48 5.47 -16.77 L 5.47 -16.77 Q 3.17 -19.12 3.17 -23.32 L 3.17 -23.32 Q 3.17 -27.66 6.23 -30.35 L 6.23 -30.35 Q 9.33 -33.08 14.59 -33.08 Q 19.85 -33.08 23.8 -30.66 Z M 38.38 -36.38 L 38.38 -2.73 Q 38.38 -0.63 38.47 0 L 38.47 0 L 32.27 0 L 32.27 -36.38 L 38.38 -36.38 Z M 49.95 -28.83 L 44.45 -32.79 Q 46.41 -35.84 48.53 -38.16 L 48.53 -38.16 L 53.78 -34.03 Q 52.73 -32.74 51.83 -31.49 L 51.83 -31.49 Q 51.83 -31.49 49.95 -28.83 L 49.95 -28.83 Z M 50.87 -25.51 L 50.87 -2.73 Q 50.87 -0.63 50.97 0 L 50.97 0 L 44.77 0 L 44.77 -25.51 L 50.87 -25.51 Z M 75.26 -1.37 L 75.26 -1.37 Q 72.16 0.37 69.06 0.37 Q 65.96 0.37 63.64 -0.61 Q 61.32 -1.59 59.68 -3.3 L 59.68 -3.3 Q 56.32 -6.81 56.32 -12.43 L 56.32 -12.43 Q 56.32 -18.24 60.22 -22.09 L 60.22 -22.09 Q 64.15 -26 70.28 -26 L 70.28 -26 Q 72.16 -26 73.97 -25.51 L 73.97 -25.51 L 73.97 -36.38 L 79.95 -36.38 L 79.95 -10.28 Q 79.95 -7.03 80.25 -6.03 Q 80.56 -5.03 80.94 -4.57 Q 81.32 -4.1 81.9 -3.69 L 81.9 -3.69 L 77.31 0.37 Q 76.04 -0.32 75.26 -1.37 Z M 70.21 -5.25 L 70.21 -5.25 Q 72.26 -5.25 73.97 -6.03 L 73.97 -6.03 L 73.97 -19.56 Q 72.26 -20.26 70.26 -20.26 Q 68.25 -20.26 66.83 -19.73 Q 65.4 -19.19 64.37 -18.24 L 64.37 -18.24 Q 62.22 -16.24 62.22 -13.04 L 62.22 -13.04 Q 62.22 -9.55 64.18 -7.47 L 64.18 -7.47 Q 66.28 -5.25 70.21 -5.25 Z M 85.76 -12.55 L 85.76 -12.55 Q 85.76 -15.41 86.73 -17.85 Q 87.71 -20.29 89.49 -22.12 L 89.49 -22.12 Q 93.3 -26 99.45 -26 L 99.45 -26 Q 104.65 -26 107.8 -22.56 L 107.8 -22.56 Q 110.9 -19.24 110.9 -14.21 L 110.9 -14.21 Q 110.9 -12.28 110.61 -11.57 L 110.61 -11.57 Q 108.17 -10.89 100.67 -10.89 L 100.67 -10.89 L 92.08 -10.89 Q 92.71 -8.28 95.03 -6.82 Q 97.35 -5.37 101.06 -5.37 L 101.06 -5.37 Q 104.95 -5.37 107.73 -6.76 L 107.73 -6.76 Q 108.46 -7.13 108.83 -7.45 L 108.83 -7.45 Q 108.78 -6.42 108.71 -5.35 L 108.71 -5.35 L 108.44 -1.54 Q 106.58 -0.27 102.43 0.22 L 102.43 0.22 Q 101.21 0.37 100.09 0.37 L 100.09 0.37 Q 93.89 0.37 89.83 -3.25 L 89.83 -3.25 Q 85.76 -6.88 85.76 -12.55 Z M 104.41 -15.63 L 104.41 -15.63 Q 103.41 -20.87 98.7 -20.87 L 98.7 -20.87 Q 94.99 -20.87 93.06 -17.68 L 93.06 -17.68 Q 92.47 -16.7 92.15 -15.53 L 92.15 -15.53 Q 92.74 -15.5 93.59 -15.48 L 93.59 -15.48 L 95.4 -15.48 Q 96.3 -15.45 97.13 -15.45 L 97.13 -15.45 L 98.53 -15.45 Q 99.77 -15.45 100.97 -15.48 L 100.97 -15.48 L 102.97 -15.55 Q 103.77 -15.58 104.41 -15.63 Z" stroke-linecap="round" />
</g>
</svg>